<svg version="1.0" xmlns="http://www.w3.org/2000/svg" viewBox="0 0 561.000000 536.000000"
 preserveAspectRatio="xMidYMid meet">
<g transform="translate(0.000000,536.000000) scale(0.100000,-0.100000)"
fill="currentColor" stroke="none">
<path fill="currentColor" d="M2535 5339 c-210 -21 -414 -65 -621 -134 -132 -44 -340 -130 -349
-145 -14 -22 154 -330 285 -524 209 -309 435 -527 618 -597 41 -15 88 -23 170
-27 138 -6 139 -3 48 104 -70 82 -96 127 -103 183 -10 76 33 163 98 196 35 19
130 19 172 1 39 -17 82 -61 97 -101 6 -16 17 -77 25 -135 7 -58 18 -117 24
-132 16 -42 52 -60 119 -59 167 0 383 137 732 462 107 100 450 458 457 477 4
10 -213 133 -317 180 -292 134 -622 223 -935 252 -126 12 -403 11 -520 -1z"/>
<path fill="currentColor" d="M1336 4936 c-214 -135 -373 -263 -546 -442 -684 -705 -945 -1707
-695 -2662 173 -658 596 -1248 1160 -1618 116 -76 285 -173 347 -198 l36 -16
120 178 c397 589 679 1135 910 1758 121 328 146 454 146 759 0 226 -13 328
-61 494 -73 254 -174 400 -364 528 -404 273 -709 656 -909 1142 -28 69 -52
126 -54 128 -1 2 -42 -21 -90 -51z"/>
<path fill="currentColor" d="M4317 4676 c-226 -258 -459 -481 -818 -784 -180 -151 -243 -212 -266
-255 -25 -50 -11 -147 71 -469 93 -365 116 -482 123 -629 7 -149 -5 -229 -77
-514 -89 -348 -109 -507 -90 -730 32 -391 137 -641 371 -889 97 -102 238 -221
364 -306 l76 -51 84 45 c228 124 416 266 626 475 186 186 309 342 434 552 386
647 493 1441 291 2170 -129 469 -367 878 -711 1225 -110 111 -332 304 -349
304 -2 0 -60 -65 -129 -144z"/>
</g>
</svg>
