<svg version="1.2" xmlns="http://www.w3.org/2000/svg" viewBox="0 0 2097 536" >
<path fill="currentColor" d="m253.5 2.1c-21 2.1-41.4 6.5-62.1 13.4-13.2 4.4-34 13-34.9 14.5-1.4 2.2 15.4 33 28.5 52.4 20.9 30.9 43.5 52.7 61.8 59.7 4.1 1.5 8.8 2.3 17 2.7 13.8 0.6 13.9 0.3 4.8-10.4-7-8.2-9.6-12.7-10.3-18.3-1-7.6 3.3-16.3 9.8-19.6 3.5-1.9 13-1.9 17.2-0.1 3.9 1.7 8.2 6.1 9.7 10.1 0.6 1.6 1.7 7.7 2.5 13.5 0.7 5.8 1.8 11.7 2.4 13.2 1.6 4.2 5.2 6 11.9 5.9 16.7 0 38.3-13.7 73.2-46.2 10.7-10 45-45.8 45.7-47.7 0.4-1-21.3-13.3-31.7-18-29.2-13.4-62.2-22.3-93.5-25.2-12.6-1.2-40.3-1.1-52 0.1z"/>
<path fill="currentColor" d="m133.6 42.4c-21.4 13.5-37.3 26.3-54.6 44.2-68.4 70.5-94.5 170.7-69.5 266.2 17.3 65.8 59.6 124.8 116 161.8 11.6 7.6 28.5 17.3 34.7 19.8l3.6 1.6 12-17.8c39.7-58.9 67.9-113.5 91-175.8 12.1-32.8 14.6-45.4 14.6-75.9 0-22.6-1.3-32.8-6.1-49.4-7.3-25.4-17.4-40-36.4-52.8-40.4-27.3-70.9-65.6-90.9-114.2-2.8-6.9-5.2-12.6-5.4-12.8-0.1-0.2-4.2 2.1-9 5.1z"/>
<path fill="currentColor" d="m431.7 68.4c-22.6 25.8-45.9 48.1-81.8 78.4-18 15.1-24.3 21.2-26.6 25.5-2.5 5-1.1 14.7 7.1 46.9 9.3 36.5 11.6 48.2 12.3 62.9 0.7 14.9-0.5 22.9-7.7 51.4-8.9 34.8-10.9 50.7-9 73 3.2 39.1 13.7 64.1 37.1 88.9 9.7 10.2 23.8 22.1 36.4 30.6l7.6 5.1 8.4-4.5c22.8-12.4 41.6-26.6 62.6-47.5 18.6-18.6 30.9-34.2 43.4-55.2 38.6-64.7 49.3-144.1 29.1-217-12.9-46.9-36.7-87.8-71.1-122.5-11-11.1-33.2-30.4-34.9-30.4-0.2 0-6 6.5-12.9 14.4z"/>
<path fill-rule="evenodd" fill="currentColor" d="m760.7 98.8v109.2h-16.7l-60.2-73.9v73.9h-20.1v-109.2h16.7l60.2 73.9v-73.9zm29.3 54.6c0-32.3 25-56.2 58.8-56.2 33.9 0 58.8 23.8 58.8 56.2 0 32.4-24.9 56.2-58.8 56.2-33.8 0-58.8-23.9-58.8-56.2zm97.2 0c0-22.3-16.4-38.4-38.4-38.4-22 0-38.4 16.1-38.4 38.4 0 22.3 16.4 38.4 38.4 38.4 22 0 38.4-16.1 38.4-38.4zm121.2 54.6l-22.3-32c-1.4 0.2-2.8 0.2-4.2 0.2h-24.7v31.8h-20.2v-109.2h44.9c28.7 0 46.5 14.7 46.5 38.8 0 16.6-8.5 28.7-23.3 34.5l25.1 35.9zm-27.4-92h-23.7v43.5h23.7c17.8 0 27-8.1 27-21.9 0-13.7-9.2-21.6-27-21.6zm98.4 0h-36.2v-17.2h92.7v17.2h-36.2v92h-20.3zm176.6-17.2v109.2h-20.3v-46.8h-56.4v46.8h-20.3v-109.2h20.3v45.1h56.4v-45.1zm93 0h20.3v92.1h57.1v17.1h-77.4zm91.4 54.6c0-32.3 25-56.1 58.8-56.1 33.9 0 58.8 23.7 58.8 56.1 0 32.5-24.9 56.2-58.8 56.2-33.8 0-58.8-23.9-58.8-56.2zm97.2 0c0-22.3-16.4-38.3-38.4-38.3-22 0-38.3 16-38.3 38.3 0 22.3 16.3 38.4 38.3 38.4 22 0 38.4-16.1 38.4-38.4zm146.8-54.6v109.2h-16.7l-60.2-73.9v73.9h-20.1v-109.2h16.7l60.2 74v-74zm37.1 0h47.7c35.5 0 59.6 21.9 59.6 54.6 0 32.8-24.1 54.6-59.6 54.6h-47.7zm46.8 92.1c24.3 0 40.1-14.8 40.1-37.5 0-22.6-15.8-37.4-40.1-37.4h-26.5v74.9zm82-37.5c0-32.3 25-56.1 58.9-56.1 33.8 0 58.8 23.7 58.8 56.1 0 32.5-25 56.2-58.8 56.2-33.9 0-58.9-23.9-58.9-56.2zm97.2 0c0-22.3-16.3-38.3-38.3-38.3-22 0-38.4 16-38.4 38.3 0 22.3 16.4 38.4 38.4 38.4 22 0 38.3-16.1 38.3-38.4zm146.8-54.6v109.2h-16.7l-60.2-73.9v73.9h-20.1v-109.2h16.7l60.2 74v-74zm-1339.3 268.9c0 24-17.7 38.8-46.4 38.8h-24.7v31.5h-20.3v-109.2h45c28.7 0 46.4 14.7 46.4 38.9zm-20.4 0c0-13.7-9.2-21.7-27-21.7h-23.7v43.4h23.7c17.8 0 27-8 27-21.7zm40.9 58.8l7-15.8c8.7 7.1 22.6 12.1 36 12.1 17 0 24.2-6.1 24.2-14.2 0-23.6-64.9-8.2-64.9-48.7 0-17.6 14.1-32.6 44-32.6 13.1 0 26.8 3.4 36.4 9.7l-6.4 15.7c-9.9-5.8-20.6-8.6-30.1-8.6-16.9 0-23.8 6.6-23.8 14.8 0 23.3 64.8 8.2 64.8 48.3 0 17.4-14.2 32.4-44.2 32.4-17 0-34-5.3-43-13.1zm159.9-27v38.5h-20.3v-38.2l-42.9-71h21.7l32 53.2 32.3-53.2h19.9zm51.4-16c0-32.6 24.9-56.2 58.5-56.2 17.7 0 33 6.4 43.2 18.3l-13.1 12.3c-8-8.6-17.8-12.8-29.2-12.8-22.6 0-39 15.9-39 38.4 0 22.4 16.4 38.3 39 38.3 11.4 0 21.2-4.2 29.2-12.9l13.1 12.5c-10.2 11.8-25.5 18.2-43.4 18.2-33.4 0-58.3-23.5-58.3-56.1zm226-54.6v109.2h-20.3v-46.8h-56.5v46.8h-20.2v-109.2h20.2v45.1h56.5v-45.1zm29.3 54.6c0-32.3 25-56.2 58.9-56.2 33.8 0 58.8 23.7 58.8 56.2 0 32.4-25 56.1-58.8 56.1-33.9 0-58.9-23.8-58.9-56.1zm97.2 0c0-22.3-16.3-38.4-38.3-38.4-22 0-38.4 16.1-38.4 38.4 0 22.3 16.4 38.3 38.4 38.3 22 0 38.3-16 38.3-38.3zm49.8-54.6h20.3v92h57.1v17.2h-77.4zm91.4 54.6c0-32.3 25-56.2 58.8-56.2 33.9 0 58.8 23.7 58.8 56.2 0 32.4-24.9 56.1-58.8 56.1-33.8 0-58.8-23.8-58.8-56.1zm97.2 0c0-22.3-16.4-38.4-38.4-38.4-22 0-38.4 16.1-38.4 38.4 0 22.3 16.4 38.3 38.4 38.3 22 0 38.4-16 38.4-38.3zm124.3-1.3h19.2v43.5c-11.4 9.3-27.3 13.9-42.7 13.9-33.9 0-58.8-23.5-58.8-56.1 0-32.6 24.9-56.2 59.1-56.2 18.2 0 33.5 6.1 43.8 17.8l-12.8 12.5c-8.5-8.6-18.4-12.5-30.1-12.5-23.2 0-39.6 15.8-39.6 38.4 0 22.1 16.4 38.3 39.5 38.3 7.8 0 15.4-1.5 22.4-5.6zm53.7-53.3h20.3v109.2h-20.3zm48.4 97.6l7-15.7c8.7 7 22.6 12 36 12 17 0 24.2-6.1 24.2-14.2 0-23.6-64.9-8.1-64.9-48.7 0-17.6 14-32.6 44-32.6 13.1 0 26.8 3.5 36.3 9.7l-6.4 15.7c-9.8-5.7-20.6-8.5-30.1-8.5-16.8 0-23.7 6.5-23.7 14.8 0 23.2 64.8 8.1 64.8 48.2 0 17.5-14.2 32.4-44.2 32.4-17 0-34-5.3-43-13.1zm135.7-80.5h-36.2v-17.1h92.6v17.1h-36.1v92.1h-20.3zm69.2 80.5l7.1-15.8c8.7 7 22.6 12 36 12 17 0 24.2-6.1 24.2-14.2 0-23.5-64.9-8.1-64.9-48.6 0-17.7 14-32.6 44-32.6 13.1 0 26.8 3.4 36.3 9.6l-6.4 15.8c-9.8-5.8-20.6-8.6-30.1-8.6-16.8 0-23.7 6.6-23.7 14.8 0 23.3 64.7 8.1 64.7 48.2 0 17.5-14.2 32.5-44.1 32.5-17 0-34-5.3-43.1-13.1z"/></svg>